<svg xmlns="http://www.w3.org/2000/svg" viewBox="0 0 900 268" width="900" height="268" role="img" aria-label="Konichiwa, I am Mohammed Shoaib Choudry, techpreneur, product builder and tinkerer">
  <defs>
    <linearGradient id="accentL" x1="0" y1="0" x2="1" y2="0">
      <stop offset="0%" stop-color="#ea580c"/>
      <stop offset="100%" stop-color="#fb923c"/>
    </linearGradient>
    <linearGradient id="glowL" x1="0" y1="0" x2="1" y2="1">
      <stop offset="0%" stop-color="#f97316" stop-opacity="0.45"/>
      <stop offset="100%" stop-color="#f97316" stop-opacity="0"/>
    </linearGradient>
    <style>
      .rise { opacity:0; transform:translateY(16px); animation:rise .85s cubic-bezier(.2,.7,.3,1) forwards; }
      @keyframes rise { to { opacity:1; transform:translateY(0);} }
      .d1{animation-delay:.08s} .d2{animation-delay:.30s} .d3{animation-delay:.52s} .d4{animation-delay:.70s}

      .sweep { transform:scaleX(0); transform-origin:64px 50%;
               animation:sweep 1.05s cubic-bezier(.2,.7,.3,1) .55s forwards; }
      @keyframes sweep { to { transform:scaleX(1);} }

      .cursor { fill:#ea580c; animation:blink 1.15s steps(1) 1.5s infinite; }
      @keyframes blink { 0%,55%{opacity:1} 56%,100%{opacity:0} }

      .ink  { stroke-dasharray:170; stroke-dashoffset:170;
              animation:sign 10s ease-in-out infinite; }
      @keyframes sign {
        0%{stroke-dashoffset:170; opacity:1} 14%{stroke-dashoffset:0}
        86%{stroke-dashoffset:0; opacity:1} 94%{opacity:0}
        95%{stroke-dashoffset:170; opacity:0} 100%{stroke-dashoffset:170; opacity:1} }
      .ink2 { animation-delay:.85s }
      .ink3 { animation-delay:1.7s }
      .swash{ opacity:0; transform-box:fill-box; transform-origin:0% 50%;
              animation:swash 10s ease-in-out infinite; }
      @keyframes swash {
        0%,28%{opacity:0; transform:scaleX(0)}
        42%{opacity:1; transform:scaleX(1)}
        86%{opacity:1; transform:scaleX(1)} 94%,100%{opacity:0} }

      .drift { animation:drift 12s ease-in-out infinite alternate; }
      @keyframes drift { to { transform:translate(18px,-8px);} }

      .hi   { font:400 33px 'Segoe Script','Bradley Hand','Snell Roundhand','Brush Script MT',cursive;
              fill:#ea580c; }
      .name { font:700 46px 'Segoe UI','Helvetica Neue',Helvetica,Arial,sans-serif;
              fill:#0a0a0a; letter-spacing:-1.3px; }
      .role { font:600 13px ui-monospace,'SF Mono',Menlo,Consolas,monospace;
              fill:#52525b; letter-spacing:2.6px; }
      .sub  { font:700 16.5px 'Segoe UI',Helvetica,Arial,sans-serif; fill:#52525b; }
    </style>
  </defs>

  <rect width="900" height="268" fill="#ffffff"/>
  <g class="drift"><circle cx="812" cy="46" r="170" fill="url(#glowL)" opacity="0.13"/></g>

  <rect x="0" y="0" width="4" height="268" fill="url(#accentL)"/>

  <g transform="translate(624,62) scale(0.92)">
    <g fill="none" stroke="#ea580c" stroke-width="3.1" stroke-linecap="round" stroke-linejoin="round">
      <path class="ink"      d="M108 47 C102 30 110 8 120 10 C129 12 123 30 114 42 C111 46 109 49 108 52"/>
      <path class="ink ink2" d="M111 45 C121 28 136 1 148 6 C158 11 154 34 143 48 C136 57 126 63 119 67"/>
      <path class="ink ink3" d="M117 52 C107 60 92 59 85 65 C77 71 81 79 93 78 C109 76 129 69 141 66
                                C149 64 153 65 151 68"/>
    </g>
    <path class="swash" fill="#ea580c"
          d="M2 113 C50 105 110 93 176 80 C206 74 228 68 241 63
             C228 72 206 77 176 84 C110 96 50 106 2 113 Z"/>
  </g>

  <text class="hi rise d1"   x="64" y="76">Konichiwa!</text>
  <text class="name rise d2" x="64" y="136">Mohammed Shoaib Choudry</text>
  <rect class="sweep" x="64" y="156" width="168" height="3" rx="1.5" fill="url(#accentL)"/>
  <text class="role rise d3" x="64" y="192">TECHPRENEUR / PRODUCT BUILDER / TINKERER</text>
  <text class="sub rise d4"  x="64" y="226">Tech products and MVPs, taken from idea to shipped<tspan class="cursor" dx="7">&#9612;</tspan></text>
</svg>
